<?xml version="1.0" encoding="UTF-8" standalone="no"?><!DOCTYPE svg PUBLIC "-//W3C//DTD SVG 1.1//EN" "http://www.w3.org/Graphics/SVG/1.1/DTD/svg11.dtd"><svg width="100%" height="100%" viewBox="0 0 816 968" version="1.1" xmlns="http://www.w3.org/2000/svg" xmlns:xlink="http://www.w3.org/1999/xlink" xml:space="preserve" xmlns:serif="http://www.serif.com/" style="fill-rule:evenodd;clip-rule:evenodd;stroke-linejoin:round;stroke-miterlimit:2;"><rect id="アートボード1" x="0" y="0" width="815.33" height="967.975" style="fill:none;"/><g><g><path d="M151.835,770.233c1.867,2.334 3.033,5.367 3.033,8.167c0,7.233 -6.066,12.833 -13.3,12.833c-3.5,0 -7.233,-1.4 -10.033,-4.433c-8.867,-10.033 -21.7,-16.1 -34.533,-16.1c-30.567,0 -53.2,23.333 -53.2,55.767c0,32.2 22.633,55.766 53.2,55.766c12.833,0 25.666,-5.6 34.533,-15.866c2.8,-2.8 6.533,-4.434 10.267,-4.434c7.233,0 12.833,5.834 12.833,12.6c0,2.8 -0.933,5.834 -2.8,8.167c-11.9,13.533 -29.4,24.267 -54.833,24.267c-45.967,0 -81.667,-32.667 -81.667,-80.5c0,-47.834 35.7,-80.5 81.667,-80.5c25.433,0 42.933,10.733 54.833,24.266Z" style="fill:#ff6384;fill-rule:nonzero;"/><path d="M269.668,905.567c-7,0 -12.366,-5.6 -12.366,-12.367l0,-59.733c0,-17.267 -9.1,-22.634 -22.867,-22.634c-12.133,0 -22.867,7.234 -28.467,14.934l0,67.433c0,6.767 -5.6,12.367 -12.6,12.367c-7,0 -12.366,-5.6 -12.366,-12.367l0,-133.933c0,-6.534 5.366,-12.134 12.833,-12.134c6.533,0 12.133,5.6 12.133,12.134l0,47.6c7.467,-8.867 21.934,-18.2 39.9,-18.2c24.267,0 36.4,12.833 36.4,35.7l0,68.833c0,6.767 -5.6,12.367 -12.6,12.367Z" style="fill:#ff6384;fill-rule:nonzero;"/><path d="M394.964,905.567l-1.4,0c-3.266,0 -11.2,-2.8 -11.2,-11.434l0,-2.1c-8.166,9.567 -21.466,14.934 -36.166,14.934c-18.434,0 -39.434,-12.367 -39.434,-37.334c0,-25.9 21,-36.633 39.434,-36.633c14.933,0 28.233,4.9 36.166,14.467l0,-17.267c0,-12.833 -10.733,-20.767 -26.133,-20.767c-9.8,0 -18.667,2.567 -26.833,8.634c-1.4,0.933 -3.267,1.633 -5.134,1.633c-4.666,0 -9.8,-3.733 -9.8,-9.8c0,-1.867 0.7,-3.967 1.867,-5.367c8.867,-11.2 29.633,-15.866 43.867,-15.866c24.966,0 47.133,10.5 47.133,40.833l0,63.7c-0.004,6.767 -5.6,12.367 -12.367,12.367Zm-12.6,-44.1c-5.6,-7.467 -15.866,-11.2 -26.6,-11.2c-13.3,0 -23.566,7.466 -23.566,19.833c0,11.9 10.266,19.6 23.566,19.6c10.734,0 21,-3.733 26.6,-11.433l0,-16.8Z" style="fill:#ff6384;fill-rule:nonzero;"/><path d="M484.093,813.867c-10.033,0.933 -19.6,5.133 -25.666,13.766l0,65.567c0,6.767 -5.6,12.367 -12.367,12.367l-0.467,0c-6.766,0 -12.133,-5.6 -12.133,-12.367l0,-91c0,-6.533 5.367,-12.133 12.833,-12.133c6.534,0 12.134,5.6 12.134,12.133l0,5.833c6.066,-8.166 14.933,-17.966 26.833,-17.966c6.767,0 10.967,4.666 10.967,10.733c0,7.467 -5.134,12.133 -12.134,13.067Z" style="fill:#ff6384;fill-rule:nonzero;"/><path d="M554.327,906.967c-19.134,0 -29.167,-10.267 -29.167,-29.167l0,-64.4l-9.333,0c-5.834,0 -10.734,-4.9 -10.734,-11.2c0,-5.833 4.9,-10.733 10.734,-10.733l9.333,0l0,-19.834c0,-6.766 5.6,-12.366 12.833,-12.366c6.767,0 12.134,5.6 12.134,12.366l0,19.834l13.766,0c5.834,0 10.5,4.9 10.5,11.2c0,5.833 -4.666,10.733 -10.5,10.733l-13.766,0l0,58.1c0,8.633 4.9,13.3 10.733,13.3c1.633,0 3.733,-0.7 5.133,-0.7c6.767,0 10.967,4.667 10.967,10.733c0,7.467 -6.767,12.134 -22.633,12.134Z" style="fill:#ff6384;fill-rule:nonzero;"/><path d="M607.993,906.733c-9.1,0 -16.566,-7.7 -16.566,-16.566c0,-9.1 7.466,-16.567 16.566,-16.567c9.1,0 16.567,7.467 16.567,16.567c0,8.866 -7.467,16.566 -16.567,16.566Z" style="fill:#ff6384;fill-rule:nonzero;"/><path d="M649.289,949.9c-14.466,0 -25.666,-3.733 -25.666,-12.833c0,-5.6 4.666,-10.034 10.033,-10.034c3.5,0 6.067,2.334 11.667,2.334c9.566,0 16.566,-5.834 16.566,-19.134l0,-108.033c0,-6.533 5.367,-12.133 12.834,-12.133c6.533,0 12.133,5.6 12.133,12.133l0,108.033c-0.004,24.267 -12.604,39.667 -37.567,39.667Zm40.367,-187.6c0,8.633 -7,15.4 -15.4,15.4c-8.4,0 -15.4,-6.767 -15.4,-15.4c0,-8.4 7,-15.167 15.4,-15.167c8.4,0 15.4,6.767 15.4,15.167Z" style="fill:#ff6384;fill-rule:nonzero;"/><path d="M757.085,906.967c-15.167,0 -35.233,-4.667 -44.1,-14.7c-1.4,-1.634 -2.333,-3.734 -2.333,-6.067c0,-5.833 5.133,-10.5 10.733,-10.5c1.867,0 3.967,0.467 5.6,1.633c8.633,5.834 20.3,10.034 31.033,10.034c14.7,0 21.934,-6.3 21.934,-14.934c0,-21.933 -68.134,-6.066 -68.134,-49.466c0,-18.434 16.1,-34.3 44.8,-34.3c15.167,0 32.2,4.666 39.9,13.533c1.4,1.633 2.1,3.5 2.1,5.6c0,5.367 -4.666,9.567 -10.033,9.567c-1.633,0 -3.5,-0.467 -5.133,-1.4c-7.234,-4.9 -16.8,-7.934 -26.834,-7.934c-12.6,0 -20.533,6.067 -20.533,13.767c0,19.833 67.9,4.9 67.9,49.7c0,20.067 -16.567,35.467 -46.9,35.467Z" style="fill:#ff6384;fill-rule:nonzero;"/></g></g><path d="M675.11,352.317c-93.2,1.829 -73.787,60.825 -139.471,75.75c-66.725,15.158 -77.258,-162.963 -143.966,-162.963c-66.717,0 -81.496,173.021 -165.034,291.809l-2.379,3.366l179.104,103.388l271.75,-156.875l0,-154.475l-0.004,0Z" style="fill:#36a2eb;fill-rule:nonzero;"/><path d="M675.11,346.946c-31.2,-40.042 -52.362,-86.075 -97.892,-86.075c-80.575,0 -59.37,131.437 -148.416,131.437c-89.059,0 -98.417,-141.379 -199.304,-8.479c-32.146,42.346 -58.021,89.558 -78.342,134.242l252.2,145.592l271.75,-156.876l0,-159.841l0.004,0Z" style="fill:#ffce56;fill-rule:nonzero;"/><path d="M131.606,401.392c30.575,-84.667 43.767,-153.242 102.137,-153.242c89.042,0 110.246,250.158 186.575,224.708c76.325,-25.437 67.846,-161.116 186.58,-161.116c22.595,0 45.675,13.846 68.212,36.246l0,158.8l-271.75,156.875l-271.758,-156.875l0,-105.396l0.004,0Z" style="fill:#fe6184;fill-opacity:0.8;fill-rule:nonzero;"/><path d="M403.148,683.333l-288.713,-166.666l0,-333.334l288.713,-166.666l288.716,166.666l0,333.334l-288.716,166.666Zm-254.792,-186.245l254.792,147.083l254.795,-147.083l0,-294.171l-254.795,-147.084l-254.792,147.084l0,294.171Z" style="fill:#e7e9ed;fill-rule:nonzero;"/></svg>