<?xml version="1.0" encoding="UTF-8" standalone="no"?><!DOCTYPE svg PUBLIC "-//W3C//DTD SVG 1.1//EN" "http://www.w3.org/Graphics/SVG/1.1/DTD/svg11.dtd"><svg width="100%" height="100%" viewBox="0 0 2633 784" version="1.1" xmlns="http://www.w3.org/2000/svg" xmlns:xlink="http://www.w3.org/1999/xlink" xml:space="preserve" xmlns:serif="http://www.serif.com/" style="fill-rule:evenodd;clip-rule:evenodd;stroke-linejoin:round;stroke-miterlimit:2;"><rect id="アートボード1" x="0" y="0" width="2632.84" height="783.887" style="fill:none;"/><path d="M1220.83,243.91c-13.333,-0.417 -24.166,10 -24.583,22.917l0,120c-57.083,-45.834 -140.833,-36.667 -186.667,20.416c-18.75,23.75 -29.166,52.917 -29.166,83.334c-1.25,73.333 57.083,133.75 130.416,135c73.334,1.25 133.75,-57.084 135,-130.417l0,-226.667c0,-6.666 -2.5,-12.916 -7.083,-17.5c-5,-4.583 -11.25,-7.083 -17.917,-7.083m-31.25,278.75c-8.333,20 -24.166,35.833 -44.166,44.583c-20.834,8.75 -44.167,8.75 -65,0c-20,-8.333 -35.417,-24.583 -43.75,-44.166c-8.75,-20.417 -8.75,-43.75 0,-64.584c8.333,-20 24.166,-35.833 43.75,-44.166c20.833,-8.75 44.166,-8.75 65,0c20,8.75 35.833,24.583 44.166,44.583c8.75,20 8.75,43.333 0,63.75" style="fill:#0091e2;fill-rule:nonzero;"/><path d="M1497.92,396.827c-51.667,-51.667 -135.834,-51.667 -187.5,0c-25,25 -38.75,58.75 -38.75,93.75c-1.25,73.333 57.083,133.75 130.416,135c73.334,1.25 133.75,-57.084 135,-130.417l0,-4.583c0,-17.5 -3.333,-34.584 -10,-50.834c-6.666,-16.25 -16.666,-30.833 -29.166,-42.916m-17.084,125.416c-4.166,10 -10.416,18.75 -17.916,26.25c-7.5,7.5 -16.667,13.75 -26.25,17.917c-20.834,8.75 -44.167,8.75 -65,0c-20,-8.333 -35.834,-24.583 -44.167,-44.167c-8.75,-20.416 -8.75,-43.75 0,-64.583c8.333,-20 24.167,-35.417 44.167,-44.167c20.833,-8.75 44.166,-8.75 65,0c10,4.167 18.75,10.417 26.25,17.917c7.5,7.5 13.75,16.667 17.916,26.25c8.75,21.25 8.75,44.583 0,64.583" style="fill:#0091e2;fill-rule:nonzero;"/><path d="M2046.67,382.243c0,-3.333 -0.834,-6.666 -2.084,-9.583c-1.25,-2.917 -3.333,-5.417 -5.416,-7.917c-2.084,-2.083 -5,-4.166 -7.917,-5.416c-2.917,-1.25 -6.25,-2.084 -9.583,-2.084c-4.584,0 -9.167,1.25 -13.334,3.75l-141.666,92.084l0,-184.167c0,-6.667 -2.5,-12.917 -7.084,-17.5c-4.583,-4.583 -10.833,-7.5 -17.5,-7.5c-13.75,0 -24.583,10.833 -25,24.583l0,329.584c0,6.666 2.5,12.916 7.084,17.5c4.583,5 10.833,7.5 17.5,7.5c6.666,0 12.916,-2.5 17.5,-7.5c4.583,-4.584 7.5,-10.834 7.083,-17.5l0,-85.417l28.75,-18.75l109.583,122.917c4.584,4.166 10.417,6.666 16.667,6.25c3.333,0 6.667,-0.417 9.583,-2.084c2.917,-1.25 5.417,-2.916 7.917,-5.416c2.083,-2.5 4.167,-5 5.417,-7.917c1.25,-2.917 2.083,-6.25 2.083,-9.583c0,-6.25 -2.5,-12.5 -6.667,-17.084l-101.666,-114.583l99.166,-64.583c6.667,-4.167 10,-11.667 9.584,-19.584" style="fill:#0091e2;fill-rule:nonzero;"/><path d="M1635.42,431.41c7.5,-7.5 16.666,-13.75 26.666,-17.917c10.417,-4.166 21.25,-6.666 32.5,-6.666c10,0 19.584,1.666 28.75,5c9.167,3.75 17.917,8.75 25.417,15.416c4.583,3.75 10.417,5.417 16.25,5.417c6.667,0.417 13.333,-2.083 17.917,-7.083c4.583,-4.584 7.083,-11.25 7.083,-17.917c0,-7.083 -2.917,-14.167 -8.75,-18.75c-23.75,-21.25 -54.583,-32.917 -86.667,-32.083c-73.333,0 -132.916,59.583 -132.916,132.916c0,73.334 59.166,132.5 132.083,132.917c32.083,0 62.917,-11.25 87.083,-32.083c5,-4.584 7.917,-11.25 7.917,-18.334c0.417,-13.333 -10,-24.166 -22.917,-24.583l-1.666,0c-5.834,0 -11.25,1.667 -15.834,5c-7.5,6.667 -15.833,11.667 -25,15.417c-9.166,3.333 -19.166,5 -28.75,5c-11.25,0 -22.083,-2.084 -32.5,-6.667c-10,-4.167 -18.75,-10.417 -26.666,-17.917c-32.5,-32.5 -32.5,-85 -0.417,-117.5c0.417,0.834 0.417,0.834 0.417,0.417" style="fill:#0091e2;fill-rule:nonzero;"/><path d="M2538.75,374.327c-5,-4.584 -10.417,-7.917 -16.667,-10c-7.083,-2.5 -14.583,-4.167 -22.083,-5c-7.5,-0.834 -15,-1.25 -22.5,-1.25c-15,0 -30.417,2.5 -44.583,7.916c-14.167,5 -27.084,12.5 -38.75,21.667l0,-5c-0.417,-13.75 -12.084,-24.167 -25.834,-23.75c-12.916,0.417 -23.333,10.833 -23.75,23.75l0,216.25c0.417,13.75 12.084,24.167 25.834,23.75c12.916,-0.417 23.333,-10.833 23.75,-23.75l0,-107.917c0,-11.25 2.083,-22.083 6.666,-32.5c4.167,-10 10,-18.75 17.917,-26.25c7.5,-7.5 16.667,-13.75 26.25,-17.916c10.417,-4.167 21.25,-6.667 32.5,-6.667c11.25,0 22.083,2.083 32.5,5.833c3.333,1.667 6.667,2.5 10.417,2.5c3.333,0 6.666,-0.416 9.583,-2.083c2.917,-1.25 5.417,-2.917 7.917,-5.417c2.083,-2.083 4.166,-5 5.416,-7.916c1.25,-2.917 2.084,-6.25 2.084,-9.584c0.416,-6.25 -2.084,-12.083 -6.667,-16.666" style="fill:#0091e2;fill-rule:nonzero;"/><path d="M2308.75,439.743c-21.25,-49.166 -69.583,-81.25 -122.917,-81.666c-73.333,0 -132.5,59.166 -132.916,132.5c0,73.333 59.583,132.916 132.916,132.916c31.667,0 62.5,-11.25 86.667,-32.083c0.417,-0.417 0.833,-0.833 0.833,-0.833c2.084,-1.667 4.167,-3.75 5.417,-6.25c7.917,-11.667 5,-27.084 -6.25,-35c-9.583,-6.25 -22.083,-5 -30.417,2.916c-0.833,0.834 -3.333,2.917 -3.333,3.334l-0.417,0.416c-7.083,5.834 -15,10.834 -23.75,13.75c-9.166,3.334 -18.75,5 -28.75,4.584c-9.166,0 -17.916,-1.25 -26.666,-4.167c-8.334,-2.917 -16.25,-6.667 -23.334,-12.083c-7.083,-5 -13.333,-11.25 -18.333,-18.334c-5.417,-7.083 -9.167,-15.416 -11.667,-23.75l187.5,0c6.667,0 12.917,-2.5 17.5,-7.083c5,-4.583 7.5,-10.833 7.084,-17.5c0.416,-17.917 -2.917,-35.417 -9.167,-51.667m-202.917,26.667c2.5,-8.75 6.25,-16.667 11.667,-23.75c5,-7.083 11.25,-13.333 18.333,-18.333c7.084,-5 15,-9.167 23.334,-12.084c8.333,-2.916 17.5,-4.166 26.25,-4.166c8.75,0 17.916,1.25 26.25,4.166c16.666,5.417 31.25,16.25 41.666,30.417c5.417,7.083 9.167,15.417 12.084,23.75l-159.584,0Z" style="fill:#0091e2;fill-rule:nonzero;"/><path d="M2454.17,587.243c-9.584,0 -17.084,7.917 -17.084,17.5c0,9.584 7.917,17.084 17.5,17.084c9.584,0 17.084,-7.917 17.084,-17.084c0,-10 -7.917,-17.5 -17.5,-17.5m0,30.834c-7.5,0.416 -13.75,-5.417 -14.167,-12.917c-0.417,-7.5 5.417,-13.75 12.917,-14.167c7.5,-0.416 13.75,5.417 14.166,12.917l0,0.833c0.417,7.084 -5.416,13.334 -12.5,13.334l-0.416,0" style="fill:#0091e2;fill-rule:nonzero;"/><path d="M2458.33,604.743c2.084,-0.416 3.334,-2.083 3.334,-4.166c0,-1.667 -0.417,-2.917 -1.667,-3.75c-1.667,-0.834 -3.75,-1.25 -5.833,-1.25c-2.084,0 -4.584,0 -6.667,0.416l0,17.084l3.75,0l0,-6.667l1.667,0c2.083,0 3.333,0.833 3.75,2.5c0.416,1.25 0.833,2.917 1.25,4.167l4.166,0c-0.833,-1.25 -1.25,-2.917 -1.25,-4.167c0.417,-1.667 -0.833,-3.333 -2.5,-4.167m-5,-1.25l-2.083,0l0,-5l2.083,0c2.5,0 3.75,1.25 3.75,2.5c0.417,1.667 -1.666,2.917 -3.75,2.5" style="fill:#0091e2;fill-rule:nonzero;"/><path d="M935,299.743c-2.5,-2.083 -25,-19.166 -73.333,-19.166c-12.5,0 -25.417,1.25 -37.917,3.333c-9.167,-63.75 -62.083,-94.583 -64.167,-96.25l-12.916,-7.5l-8.334,12.083c-10.416,16.25 -18.333,34.584 -22.916,53.334c-8.75,36.25 -3.334,70.416 15,99.583c-22.084,12.5 -57.917,15.417 -65.417,15.833l-591.667,0c-15.416,0 -27.916,12.5 -27.916,27.917c-0.834,51.667 7.916,103.333 25.833,152.083c20.417,53.334 50.833,92.917 90,117.084c44.167,27.083 116.25,42.5 197.5,42.5c36.667,0 73.333,-3.334 109.583,-10c50.417,-9.167 98.75,-26.667 143.334,-52.084c36.666,-21.25 69.583,-48.333 97.5,-80c47.083,-52.916 75,-112.083 95.416,-164.583l8.334,0c51.25,0 82.916,-20.417 100.416,-37.917c11.667,-10.833 20.417,-24.166 26.667,-39.166l3.75,-10.834l-8.75,-6.25Z" style="fill:#0091e2;fill-rule:nonzero;"/><path d="M128.333,343.91l79.167,0c3.75,0 7.083,-2.917 7.083,-7.083l0,-70.834c0,-3.75 -2.916,-7.083 -7.083,-7.083l-79.167,0c-3.75,0 -7.083,2.917 -7.083,7.083l0,70.834c0.417,4.166 3.333,7.083 7.083,7.083" style="fill:#0091e2;fill-rule:nonzero;"/><path d="M237.5,343.91l79.167,0c3.75,0 7.083,-2.917 7.083,-7.083l0,-70.834c0,-3.75 -2.917,-7.083 -7.083,-7.083l-79.167,0c-3.75,0 -7.083,2.917 -7.083,7.083l0,70.834c0.416,4.166 3.333,7.083 7.083,7.083" style="fill:#0091e2;fill-rule:nonzero;"/><path d="M348.75,343.91l79.167,0c3.75,0 7.083,-2.917 7.083,-7.083l0,-70.834c0,-3.75 -2.917,-7.083 -7.083,-7.083l-79.167,0c-3.75,0 -7.083,2.917 -7.083,7.083l0,70.834c0,4.166 2.916,7.083 7.083,7.083" style="fill:#0091e2;fill-rule:nonzero;"/><path d="M458.333,343.91l79.167,0c3.75,0 7.083,-2.917 7.083,-7.083l0,-70.834c0,-3.75 -2.916,-7.083 -7.083,-7.083l-79.167,0c-3.75,0 -7.083,2.917 -7.083,7.083l0,70.834c0,4.166 3.333,7.083 7.083,7.083" style="fill:#0091e2;fill-rule:nonzero;"/><path d="M237.5,242.66l79.167,0c3.75,0 7.083,-3.333 7.083,-7.083l0,-70.834c0,-3.75 -2.917,-7.083 -7.083,-7.083l-79.167,0c-3.75,0 -7.083,2.917 -7.083,7.083l0,70.834c0.416,3.75 3.333,7.083 7.083,7.083" style="fill:#0091e2;fill-rule:nonzero;"/><path d="M348.75,242.66l79.167,0c3.75,0 7.083,-3.333 7.083,-7.083l0,-70.834c0,-3.75 -2.917,-7.083 -7.083,-7.083l-79.167,0c-3.75,0 -7.083,2.917 -7.083,7.083l0,70.834c0,3.75 2.916,7.083 7.083,7.083" style="fill:#0091e2;fill-rule:nonzero;"/><path d="M458.333,242.66l79.167,0c3.75,0 7.083,-3.333 7.083,-7.083l0,-70.834c0,-3.75 -3.333,-7.083 -7.083,-7.083l-79.167,0c-3.75,0 -7.083,2.917 -7.083,7.083l0,70.834c0,3.75 3.333,7.083 7.083,7.083" style="fill:#0091e2;fill-rule:nonzero;"/><path d="M458.333,140.993l79.167,0c3.75,0 7.083,-2.916 7.083,-7.083l0,-70.833c0,-3.75 -3.333,-7.084 -7.083,-7.084l-79.167,0c-3.75,0 -7.083,2.917 -7.083,7.084l0,70.833c0,3.75 3.333,7.083 7.083,7.083" style="fill:#0091e2;fill-rule:nonzero;"/><path d="M568.75,343.91l79.167,0c3.75,0 7.083,-2.917 7.083,-7.083l0,-70.834c0,-3.75 -2.917,-7.083 -7.083,-7.083l-79.167,0c-3.75,0 -7.083,2.917 -7.083,7.083l0,70.834c0.416,4.166 3.333,7.083 7.083,7.083" style="fill:#0091e2;fill-rule:nonzero;"/></svg>