<svg id="Layer_1" data-name="Layer 1" xmlns="http://www.w3.org/2000/svg" viewBox="0 0 168.03 114.11"><defs><style>.cls-1{fill:#5d87a1;}.cls-1,.cls-4,.cls-5{fill-rule:evenodd;}.cls-2,.cls-5{fill:#00758f;}.cls-3,.cls-4{fill:#f29111;}</style></defs><title>logo-mysql</title><path class="cls-1" d="M635.87,359.77A7.42,7.42,0,0,0,634,360v.1H634a15.69,15.69,0,0,0,1.5,1.92c.37.75.7,1.49,1.08,2.24l.09-.09a2.63,2.63,0,0,0,1-2.34c-.28-.33-.32-.66-.56-1-.28-.47-.89-.71-1.26-1.08" transform="translate(-521.01 -348.2)"/><path class="cls-2" d="M561.41,452.15h-6.49q-.34-16.41-1.89-30.87H553l-9.87,30.87h-4.94l-9.81-30.87h-.06q-1.08,13.89-1.37,30.87H521q.57-20.65,2.87-38.73h8l9.35,28.46h.06l9.41-28.46h7.69q2.54,21.16,3,38.73" transform="translate(-521.01 -348.2)"/><path class="cls-2" d="M589.52,423.58q-4,21.48-10.44,31.22Q574,462.32,568,462.31a10.92,10.92,0,0,1-4-1v-3.46a19.27,19.27,0,0,0,2.7.17,6.5,6.5,0,0,0,4.54-1.55,5.66,5.66,0,0,0,2.06-4.24,28.41,28.41,0,0,0-1.61-6.6l-7.11-22.09H571l5.1,16.52q1.73,5.63,1.44,7.86a108.07,108.07,0,0,0,5.85-24.38Z" transform="translate(-521.01 -348.2)"/><polygon class="cls-3" points="154.82 103.96 136.4 103.96 136.4 65.22 142.6 65.22 142.6 99.19 154.82 99.19 154.82 103.96"/><path class="cls-4" d="M652.59,453.09l-7.12-3.51a13.2,13.2,0,0,0,1.78-1.73q4.53-5.34,4.54-15.78,0-19.23-15.1-19.23-7.4,0-11.53,4.88-4.54,5.34-4.54,15.73,0,10.2,4,15,3.68,4.31,11.08,4.31a18,18,0,0,0,5.07-.68l9.27,5.39Zm-23.07-8.69q-2.35-3.78-2.35-12.16,0-14.62,8.89-14.63a7.45,7.45,0,0,1,6.83,3.5q2.36,3.78,2.35,12.05,0,14.74-8.89,14.75a7.46,7.46,0,0,1-6.83-3.51" transform="translate(-521.01 -348.2)"/><path class="cls-3" d="M617.92,441.42a10.27,10.27,0,0,1-3.61,8.09q-3.62,3.15-9.69,3.15a19.47,19.47,0,0,1-11-3.61l1.66-3.33a18.87,18.87,0,0,0,8.32,2.29,8.77,8.77,0,0,0,5.48-1.54,5.29,5.29,0,0,0,2.11-4.3c0-2.3-1.61-4.27-4.55-5.92-2.72-1.49-8.15-4.6-8.15-4.6-2.94-2.15-4.41-4.45-4.41-8.25a9.66,9.66,0,0,1,3.29-7.6,12.49,12.49,0,0,1,8.53-2.9,17.68,17.68,0,0,1,9.81,2.87l-1.5,3.33a19,19,0,0,0-7.45-1.61,6.65,6.65,0,0,0-4.59,1.44,4.78,4.78,0,0,0-1.74,3.67c0,2.29,1.64,4.28,4.67,6,2.75,1.5,8.31,4.67,8.31,4.67,3,2.14,4.53,4.42,4.53,8.19" transform="translate(-521.01 -348.2)"/><path class="cls-5" d="M683.61,400.44a21.69,21.69,0,0,0-9.08,1.31c-.71.28-1.83.28-1.92,1.17.37.38.42,1,.75,1.5a10.93,10.93,0,0,0,2.43,2.86c1,.75,2,1.49,3,2.15,1.82,1.12,3.88,1.78,5.66,2.9,1,.66,2.06,1.5,3.09,2.2.51.38.84,1,1.49,1.22v-.15c-.32-.42-.42-1-.74-1.49s-.94-.89-1.41-1.36A22.42,22.42,0,0,0,682,408c-1.5-1-4.78-2.44-5.39-4.17l-.09-.09a18.72,18.72,0,0,0,3.23-.76c1.59-.42,3-.32,4.68-.74.75-.19,1.5-.43,2.25-.66v-.42c-.85-.84-1.45-2-2.34-2.76a62.81,62.81,0,0,0-7.73-5.76c-1.45-.93-3.32-1.54-4.87-2.34-.56-.28-1.49-.42-1.82-.89a19,19,0,0,1-1.92-3.6c-1.36-2.57-2.67-5.43-3.84-8.15a50.19,50.19,0,0,0-2.38-5.33c-4.83-8-10.07-12.78-18.12-17.5a22,22,0,0,0-6-1.92c-1.17-.05-2.34-.14-3.51-.19a18.46,18.46,0,0,1-2.15-1.64c-2.67-1.68-9.55-5.33-11.51-.51-1.27,3,1.87,6,2.94,7.58a21.31,21.31,0,0,1,2.39,3.51c.33.79.42,1.64.75,2.48a56.92,56.92,0,0,0,2.43,6.27,23.37,23.37,0,0,0,1.73,2.9c.38.52,1,.75,1.18,1.6-.66.93-.71,2.33-1.08,3.5-1.69,5.29-1,11.85,1.36,15.73.74,1.17,2.52,3.75,4.91,2.76,2.11-.84,1.64-3.51,2.25-5.85.14-.56,0-.93.32-1.31v.1c.66,1.3,1.31,2.57,1.92,3.88a26.87,26.87,0,0,0,6.09,6.27c1.12.84,2,2.29,3.41,2.81v-.14H651a5.14,5.14,0,0,0-1.08-.94,22.86,22.86,0,0,1-2.43-2.81,59.54,59.54,0,0,1-5.24-8.51c-.75-1.46-1.4-3.05-2-4.5-.28-.56-.28-1.4-.75-1.68a17.62,17.62,0,0,0-2.25,3.18c-.89,2-1,4.49-1.31,7.07-.19.05-.09,0-.19.09-1.49-.37-2-1.92-2.57-3.22a20.22,20.22,0,0,1-.42-12.51c.32-1,1.73-4.07,1.17-5-.28-.89-1.22-1.4-1.73-2.11a18.79,18.79,0,0,1-1.69-3c-1.12-2.62-1.69-5.53-2.9-8.15a24.89,24.89,0,0,0-2.34-3.6,23.85,23.85,0,0,1-2.58-3.65c-.23-.52-.56-1.36-.18-1.92a.74.74,0,0,1,.65-.61c.61-.51,2.34.14,3,.42a23.91,23.91,0,0,1,4.63,2.34c.66.47,1.36,1.36,2.2,1.6h1c1.49.32,3.18.09,4.59.51a29.51,29.51,0,0,1,6.73,3.23,41.45,41.45,0,0,1,14.6,16c.57,1.07.8,2.05,1.32,3.17,1,2.3,2.2,4.64,3.18,6.89a30.92,30.92,0,0,0,3.32,6.27c.7,1,3.51,1.5,4.78,2,.93.42,2.38.8,3.23,1.31,1.59,1,3.18,2.11,4.68,3.18.74.57,3.08,1.73,3.23,2.67" transform="translate(-521.01 -348.2)"/><path class="cls-3" d="M688.07,452.15h1V447.4h-1.45l-1.19,3.24-1.29-3.24h-1.4v4.75h.92v-3.61h0l1.35,3.61h.7l1.35-3.61Zm-7.82,0h1v-3.94h1.34v-.81h-3.76v.81h1.39Z" transform="translate(-521.01 -348.2)"/></svg>