<?xml version="1.0" encoding="UTF-8" standalone="no"?><!DOCTYPE svg PUBLIC "-//W3C//DTD SVG 1.1//EN" "http://www.w3.org/Graphics/SVG/1.1/DTD/svg11.dtd"><svg width="100%" height="100%" viewBox="0 0 2143 1109" version="1.1" xmlns="http://www.w3.org/2000/svg" xmlns:xlink="http://www.w3.org/1999/xlink" xml:space="preserve" xmlns:serif="http://www.serif.com/" style="fill-rule:evenodd;clip-rule:evenodd;stroke-linejoin:round;stroke-miterlimit:2;"><rect id="アートボード1" x="0" y="0" width="2142.07" height="1108.04" style="fill:none;"/><g id="Layer_2"><g><path d="M446.137,376.671c65.834,0 110,12.083 131.667,36.667c22.083,24.166 27.083,66.25 15.833,125.416c-12.083,61.667 -35,105.834 -69.166,132.084c-34.167,26.25 -86.25,39.583 -156.25,39.583l-105.834,0l64.584,-333.333l119.166,0l0,-0.417Zm-422.916,670.833l173.333,0l41.25,-211.666l148.75,0c65.417,0 119.583,-6.667 162.083,-20.834c42.5,-13.75 80.834,-36.666 115.417,-69.166c29.167,-26.667 52.5,-56.25 70.417,-88.334c17.916,-32.083 30.833,-67.916 38.333,-106.666c18.333,-94.584 4.583,-167.917 -41.667,-220.834c-46.25,-52.916 -119.166,-79.166 -219.583,-79.166l-333.333,0l-155,796.666Z" style="fill:#6972a9;fill-rule:nonzero;"/><path d="M900.304,39.171l172.083,0l-41.25,211.667l153.334,0c96.666,0 162.916,16.666 199.583,50.416c36.667,33.75 47.5,88.334 32.917,163.75l-72.084,370.834l-175,0l68.334,-352.5c7.916,-40 5,-67.5 -8.75,-82.084c-13.334,-14.583 -42.5,-22.083 -86.25,-22.083l-137.5,0l-88.75,456.25l-172.084,0l155.417,-796.25Z" style="fill:#6972a9;fill-rule:nonzero;"/><path d="M1800.3,376.671c65.833,0 110,12.083 131.667,36.667c22.083,24.166 27.083,66.25 15.833,125.416c-12.083,61.667 -35,105.834 -69.167,132.084c-34.166,26.25 -86.25,39.583 -156.25,39.583l-105.416,0l64.583,-333.333l118.75,0l0,-0.417Zm-422.917,670.833l173.334,0l41.25,-211.666l148.75,0c65.416,0 119.583,-6.667 162.083,-20.834c42.5,-13.75 80.833,-36.666 115.417,-69.166c29.166,-26.667 52.5,-56.25 70.416,-88.334c17.917,-32.083 30.834,-67.916 38.334,-106.666c18.333,-94.584 4.583,-167.917 -41.667,-220.834c-45.833,-52.5 -119.167,-79.166 -219.583,-79.166l-333.75,0l-154.584,796.666Z" style="fill:#6972a9;fill-rule:nonzero;"/></g></g></svg>